<svg xmlns="http://www.w3.org/2000/svg" xmlns:xlink="http://www.w3.org/1999/xlink" height="55px" width="55px" version="1.1" id="Layer_1" viewBox="0 0 512 512" xml:space="preserve">
<g>
	<path style="fill:#F8D176;" d="M326.58,140.86c-1.811,0-3.64-0.55-5.219-1.693c-3.987-2.885-4.879-8.457-1.995-12.445l60.72-84.131   c0.962-1.328,2.27-2.366,3.783-2.997l93.046-38.902c4.539-1.899,9.762,0.245,11.661,4.784c1.899,4.542-0.244,9.762-4.785,11.661   l-90.732,37.935l-59.25,82.101C332.063,139.582,329.34,140.86,326.58,140.86z"/>
	<path style="fill:#F8D176;" d="M138.894,178.959c-12.271,9.44-26.728,14.364-43.407,14.364c-40.18,0-72.754-32.573-72.754-72.754   s32.573-72.754,72.754-72.754s72.754,32.573,72.754,72.754c0,0-1.396,19.141-6.672,29.339   C154.297,163.966,138.894,178.959,138.894,178.959z"/>
</g>
<path style="fill:#FFEC97;" d="M38.547,136.383c0-40.18,32.573-72.754,72.754-72.754c16.055,0,30.887,5.212,42.919,14.021  c-13.236-18.082-34.607-29.833-58.733-29.833c-40.18,0-72.754,32.573-72.754,72.754c0,24.126,11.751,45.497,29.833,58.733  C43.758,167.27,38.547,152.438,38.547,136.383z"/>
<path style="fill:#EFB13F;" d="M113.494,170.073l13.865,16.089c4.038-1.997,7.885-4.397,11.536-7.205  c0,0,15.402-14.993,22.675-29.05c1.299-2.511,2.362-5.566,3.227-8.742l-67.089-13.599l0,0  C97.706,143.17,103.309,158.253,113.494,170.073z"/>
<path style="fill:#E1E1E3;" d="M296.509,495.539l-49.655-24.711V283.564L376.3,133.348c4.318-5.011,0.758-12.779-5.857-12.779  h-264.99c-6.615,0-10.175,7.768-5.857,12.779L229.03,283.551v187.266l-49.669,24.722c-8.212,4.088-5.303,16.461,3.87,16.461h109.407  C301.813,512,304.722,499.627,296.509,495.539z"/>
<path style="fill:#F09EA0;" d="M316.813,175.096c-30.3,11.234-51.773,8.04-66.55,2.034c-21.819-8.868-31.84-25.006-55.762-27.91  c-17.975-2.183-33.942,4.303-45.995,11.644l-0.991,0.449l86.208,100.042c1.15,1.334,2.826,2.103,4.588,2.103l0,0  c1.762,0,3.438-0.768,4.588-2.103l74.354-86.286L316.813,175.096z"/>
<path style="fill:#EF8990;" d="M316.813,175.096c-11.7,4.337-22.078,6.518-31.268,7.222l-51.511,79.397l0,0  c0.953,1.106,2.341,1.743,3.802,1.743h0.951c1.46,0,2.848-0.636,3.802-1.742l74.664-86.646L316.813,175.096z"/>
</svg>