<!DOCTYPE svg PUBLIC "-//W3C//DTD SVG 1.1//EN" "http://www.w3.org/Graphics/SVG/1.1/DTD/svg11.dtd">

<!-- Uploaded to: SVG Repo, www.svgrepo.com, Transformed by: SVG Repo Mixer Tools -->
<svg height="55px" width="55px" version="1.1" id="Layer_1" xmlns="http://www.w3.org/2000/svg" xmlns:xlink="http://www.w3.org/1999/xlink" viewBox="-51.2 -51.2 614.40 614.40" xml:space="preserve" fill="#000000">

<g id="SVGRepo_bgCarrier" stroke-width="0">

<path transform="translate(-51.2, -51.2), scale(19.2)" d="M16,25.22728978469968C19.67340008977626,25.660869336039664,23.948213752496358,27.049039029679793,26.51349233774841,24.384230363573415C29.193018129763317,21.600741820587235,28.11138224440939,17.196225956161264,27.3839092034923,13.401697011252914C26.60786473076284,9.353817504136334,26.185211621135014,4.332008762623911,22.37013064814168,2.772287410172602C18.633320840562682,1.2445656951712458,15.288740771296665,5.2186301974124,11.651237381801646,6.969701374697184C8.012481735227713,8.721375380637403,2.573055282652281,8.793109397753163,1.6811728425387997,12.731821140389018C0.7895346257078412,16.669454349501354,5.155507022051745,19.567782717000597,8.19742671755561,22.22234455755423C10.406739458229913,24.150323558417213,13.08795167313632,24.883574268778624,16,25.22728978469968" fill="#fff3b8" strokewidth="0"/>

</g>

<g id="SVGRepo_tracerCarrier" stroke-linecap="round" stroke-linejoin="round"/>

<g id="SVGRepo_iconCarrier"> <g> <circle style="fill:#461b22;" cx="312.889" cy="125.156" r="62.578"/> <path style="fill:#461b22;" d="M312.889,221.867c-69.121,0-125.156,56.034-125.156,125.156h250.311 C438.044,277.901,382.01,221.867,312.889,221.867z"/> </g> <g> <circle style="fill:#9a606c;" cx="125.156" cy="125.156" r="62.578"/> <path style="fill:#9a606c;" d="M125.156,221.867C56.034,221.867,0,277.901,0,347.022h250.311 C250.311,277.901,194.277,221.867,125.156,221.867z"/> </g> <circle style="fill:#31c9b0;" cx="438.044" cy="375.467" r="73.956"/> <path style="fill:#FFFFFF;" d="M466.489,366.933h-19.911v-19.911c0-4.714-3.821-8.533-8.533-8.533s-8.533,3.82-8.533,8.533v19.911 H409.6c-4.713,0-8.533,3.82-8.533,8.533S404.887,384,409.6,384h19.911v19.911c0,4.714,3.821,8.533,8.533,8.533 s8.533-3.82,8.533-8.533V384h19.911c4.713,0,8.533-3.82,8.533-8.533S471.202,366.933,466.489,366.933z"/> </g>

</svg>