<?xml version="1.0" encoding="iso-8859-1"?>
<!-- Uploaded to: SVG Repo, www.svgrepo.com, Generator: SVG Repo Mixer Tools -->
<svg height="30px" width="30px" version="1.1" id="Layer_1" xmlns="http://www.w3.org/2000/svg" xmlns:xlink="http://www.w3.org/1999/xlink" 
	 viewBox="0 0 512 512" xml:space="preserve">
<g transform="translate(1 1)">
	<polygon style="fill:#CCCCCC;" points="272.655,497.759 502.172,497.759 502.172,47.552 272.655,47.552 	"/>
	<polygon style="fill:#FFFFFF;" points="7.828,497.759 237.345,497.759 237.345,47.552 7.828,47.552 	"/>
	<polygon style="fill:#E2E3E5;" points="34.31,497.759 475.69,497.759 475.69,47.552 34.31,47.552 	"/>
	<polygon style="fill:#E0E0E0;" points="255,374.172 378.586,374.172 378.586,250.586 255,250.586 	"/>
	<polygon style="fill:#F0F0F0;" points="255,374.172 352.103,374.172 352.103,250.586 255,250.586 	"/>
	<g>
		<path style="fill:#B6B6B6;" d="M166.724,56.379h-26.483c-5.297,0-8.828-3.531-8.828-8.828s3.531-8.828,8.828-8.828h26.483
			c5.297,0,8.828,3.531,8.828,8.828S172.021,56.379,166.724,56.379z"/>
		<path style="fill:#B6B6B6;" d="M7.828,153.483c-5.297,0-8.828-3.531-8.828-8.828V47.552c0-5.297,3.531-8.828,8.828-8.828h132.414
			c5.297,0,8.828,3.531,8.828,8.828s-3.531,8.828-8.828,8.828H16.655v88.276C16.655,149.952,13.124,153.483,7.828,153.483z"/>
		<path style="fill:#B6B6B6;" d="M502.172,153.483c-5.297,0-8.828-3.531-8.828-8.828V56.379H369.759
			c-5.297,0-8.828-3.531-8.828-8.828s3.531-8.828,8.828-8.828h132.414c5.297,0,8.828,3.531,8.828,8.828v97.103
			C511,149.952,507.469,153.483,502.172,153.483z"/>
		<path style="fill:#B6B6B6;" d="M502.172,506.586H7.828c-5.297,0-8.828-3.531-8.828-8.828V47.552c0-5.297,3.531-8.828,8.828-8.828
			h132.414c5.297,0,8.828,3.531,8.828,8.828s-3.531,8.828-8.828,8.828H16.655v432.552h476.69V56.379H369.759
			c-5.297,0-8.828-3.531-8.828-8.828s3.531-8.828,8.828-8.828h132.414c5.297,0,8.828,3.531,8.828,8.828v450.207
			C511,503.055,507.469,506.586,502.172,506.586z"/>
		<path style="fill:#B6B6B6;" d="M175.552,91.69c-5.297,0-8.828-3.531-8.828-8.828s3.531-8.828,8.828-8.828
			c15.007,0,26.483-11.476,26.483-26.483s-11.476-26.483-26.483-26.483c-15.007,0-26.483,11.476-26.483,26.483
			c0,5.297-3.531,8.828-8.828,8.828s-8.828-3.531-8.828-8.828c0-24.717,19.421-44.138,44.138-44.138s44.138,19.421,44.138,44.138
			S200.269,91.69,175.552,91.69z"/>
		<path style="fill:#B6B6B6;" d="M228.517,91.69c-5.297,0-8.828-3.531-8.828-8.828s3.531-8.828,8.828-8.828
			c15.007,0,26.483-11.476,26.483-26.483s-11.476-26.483-26.483-26.483c-5.297,0-8.828-3.531-8.828-8.828s3.531-8.828,8.828-8.828
			c24.717,0,44.138,19.421,44.138,44.138S253.234,91.69,228.517,91.69z"/>
		<path style="fill:#B6B6B6;" d="M281.483,91.69c-5.297,0-8.828-3.531-8.828-8.828s3.531-8.828,8.828-8.828
			c15.007,0,26.483-11.476,26.483-26.483s-11.476-26.483-26.483-26.483c-5.297,0-8.828-3.531-8.828-8.828s3.531-8.828,8.828-8.828
			c24.717,0,44.138,19.421,44.138,44.138S306.2,91.69,281.483,91.69z"/>
		<path style="fill:#B6B6B6;" d="M334.448,91.69c-5.297,0-8.828-3.531-8.828-8.828s3.531-8.828,8.828-8.828
			c15.007,0,26.483-11.476,26.483-26.483s-11.476-26.483-26.483-26.483c-5.297,0-8.828-3.531-8.828-8.828s3.531-8.828,8.828-8.828
			c24.717,0,44.138,19.421,44.138,44.138S359.165,91.69,334.448,91.69z"/>
		<path style="fill:#B6B6B6;" d="M131.414,259.414H7.828c-5.297,0-8.828-3.531-8.828-8.828V127c0-5.297,3.531-8.828,8.828-8.828
			h123.586c5.297,0,8.828,3.531,8.828,8.828v123.586C140.241,255.883,136.71,259.414,131.414,259.414z M16.655,241.759h105.931
			V135.828H16.655V241.759z"/>
		<path style="fill:#B6B6B6;" d="M131.414,383H7.828C2.531,383-1,379.469-1,374.172V250.586c0-5.297,3.531-8.828,8.828-8.828
			h123.586c5.297,0,8.828,3.531,8.828,8.828v123.586C140.241,379.469,136.71,383,131.414,383z M16.655,365.345h105.931V259.414
			H16.655V365.345z"/>
		<path style="fill:#B6B6B6;" d="M131.414,506.586H7.828c-5.297,0-8.828-3.531-8.828-8.828V374.172c0-5.297,3.531-8.828,8.828-8.828
			h123.586c5.297,0,8.828,3.531,8.828,8.828v123.586C140.241,503.055,136.71,506.586,131.414,506.586z M16.655,488.931h105.931V383
			H16.655V488.931z"/>
		<path style="fill:#B6B6B6;" d="M255,259.414H131.414c-5.297,0-8.828-3.531-8.828-8.828V127c0-5.297,3.531-8.828,8.828-8.828H255
			c5.297,0,8.828,3.531,8.828,8.828v123.586C263.828,255.883,260.297,259.414,255,259.414z M140.241,241.759h105.931V135.828
			H140.241V241.759z"/>
		<path style="fill:#B6B6B6;" d="M255,383H131.414c-5.297,0-8.828-3.531-8.828-8.828V250.586c0-5.297,3.531-8.828,8.828-8.828H255
			c5.297,0,8.828,3.531,8.828,8.828v123.586C263.828,379.469,260.297,383,255,383z M140.241,365.345h105.931V259.414H140.241
			V365.345z"/>
		<path style="fill:#B6B6B6;" d="M255,506.586H131.414c-5.297,0-8.828-3.531-8.828-8.828V374.172c0-5.297,3.531-8.828,8.828-8.828
			H255c5.297,0,8.828,3.531,8.828,8.828v123.586C263.828,503.055,260.297,506.586,255,506.586z M140.241,488.931h105.931V383
			H140.241V488.931z"/>
		<path style="fill:#B6B6B6;" d="M378.586,259.414H255c-5.297,0-8.828-3.531-8.828-8.828V127c0-5.297,3.531-8.828,8.828-8.828
			h123.586c5.297,0,8.828,3.531,8.828,8.828v123.586C387.414,255.883,383.883,259.414,378.586,259.414z M263.828,241.759h105.931
			V135.828H263.828V241.759z"/>
		<path style="fill:#B6B6B6;" d="M378.586,383H255c-5.297,0-8.828-3.531-8.828-8.828V250.586c0-5.297,3.531-8.828,8.828-8.828
			h123.586c5.297,0,8.828,3.531,8.828,8.828v123.586C387.414,379.469,383.883,383,378.586,383z M263.828,365.345h105.931V259.414
			H263.828V365.345z"/>
		<path style="fill:#B6B6B6;" d="M378.586,506.586H255c-5.297,0-8.828-3.531-8.828-8.828V374.172c0-5.297,3.531-8.828,8.828-8.828
			h123.586c5.297,0,8.828,3.531,8.828,8.828v123.586C387.414,503.055,383.883,506.586,378.586,506.586z M263.828,488.931h105.931
			V383H263.828V488.931z"/>
		<path style="fill:#B6B6B6;" d="M502.172,259.414H378.586c-5.297,0-8.828-3.531-8.828-8.828V127c0-5.297,3.531-8.828,8.828-8.828
			h123.586c5.297,0,8.828,3.531,8.828,8.828v123.586C511,255.883,507.469,259.414,502.172,259.414z M387.414,241.759h105.931
			V135.828H387.414V241.759z"/>
		<path style="fill:#B6B6B6;" d="M502.172,383H378.586c-5.297,0-8.828-3.531-8.828-8.828V250.586c0-5.297,3.531-8.828,8.828-8.828
			h123.586c5.297,0,8.828,3.531,8.828,8.828v123.586C511,379.469,507.469,383,502.172,383z M387.414,365.345h105.931V259.414
			H387.414V365.345z"/>
		<path style="fill:#B6B6B6;" d="M502.172,506.586H378.586c-5.297,0-8.828-3.531-8.828-8.828V374.172
			c0-5.297,3.531-8.828,8.828-8.828h123.586c5.297,0,8.828,3.531,8.828,8.828v123.586C511,503.055,507.469,506.586,502.172,506.586z
			 M387.414,488.931h105.931V383H387.414V488.931z"/>
		<path style="fill:#B6B6B6;" d="M352.103,356.517c-2.648,0-4.414-0.883-6.179-2.648l-70.621-70.621
			c-3.531-3.531-3.531-8.828,0-12.359c3.531-3.531,8.828-3.531,12.359,0l70.621,70.621c3.531,3.531,3.531,8.828,0,12.359
			C356.517,355.634,354.752,356.517,352.103,356.517z"/>
		<path style="fill:#B6B6B6;" d="M281.483,356.517c-2.648,0-4.414-0.883-6.179-2.648c-3.531-3.531-3.531-8.828,0-12.359
			l70.621-70.621c3.531-3.531,8.828-3.531,12.359,0c3.531,3.531,3.531,8.828,0,12.359l-70.621,70.621
			C285.897,355.634,284.131,356.517,281.483,356.517z"/>
	</g>
</g>
</svg>