<?xml version="1.0" encoding="iso-8859-1"?>
<!-- Uploaded to: SVG Repo, www.svgrepo.com, Generator: SVG Repo Mixer Tools -->
<svg height="30px" width="30px" version="1.1" id="Layer_1" xmlns="http://www.w3.org/2000/svg" xmlns:xlink="http://www.w3.org/1999/xlink" 
	 viewBox="0 0 512.504 512.504" xml:space="preserve">
<g transform="translate(1 1)">
	<polygon style="fill:#FFFFFF;" points="255.427,477.386 255.427,170.186 7.96,170.186 	"/>
	<g>
		<polygon style="fill:#CCCCCC;" points="255.427,477.386 255.427,170.186 502.893,170.186 		"/>
		<polygon style="fill:#CCCCCC;" points="502.893,170.186 178.627,170.186 263.96,33.652 417.56,33.652 		"/>
	</g>
	<polygon style="fill:#FFFFFF;" points="332.227,170.186 7.96,170.186 93.293,33.652 246.893,33.652 	"/>
	<g>
		<polygon style="fill:#E2E3E5;" points="255.427,477.386 42.093,170.186 460.227,170.186 		"/>
		<polygon style="fill:#E2E3E5;" points="468.76,170.186 42.093,170.186 127.427,33.652 383.427,33.652 		"/>
	</g>
	<g>
		<path style="fill:#B6B6B6;" d="M255.427,485.919c-2.56,0-5.12-0.853-6.827-3.413L1.133,175.306
			c-1.707-2.56-2.56-5.973-0.853-9.387c1.707-2.56,4.267-4.267,7.68-4.267h494.933c3.413,0,5.973,1.707,7.68,5.12
			c1.707,3.413,0.853,6.827-0.853,9.387l-247.467,307.2C260.547,485.066,257.987,485.919,255.427,485.919z M25.88,178.719
			l229.547,285.013l229.547-285.013H25.88z"/>
		<path style="fill:#B6B6B6;" d="M502.893,178.719H7.96c-3.413,0-5.973-1.707-7.68-4.267s-1.707-5.973,0-8.533L85.613,29.386
			c1.707-2.56,5.12-4.267,7.68-4.267H417.56c2.56,0,5.973,1.707,6.827,4.267l85.333,136.533c1.707,2.56,1.707,5.973,0,8.533
			C508.867,177.012,506.307,178.719,502.893,178.719z M23.32,161.652h464.213L412.44,42.186H98.413L23.32,161.652z"/>
		<path style="fill:#B6B6B6;" d="M255.427,485.919c-3.413,0-6.827-2.56-7.68-5.973L85.613,36.212c-1.707-4.267,0-8.533,5.12-10.24
			c4.267-1.707,9.387,0.853,11.093,5.12L263.96,474.826c1.707,4.267-0.853,9.387-5.12,11.093
			C257.133,485.919,256.28,485.919,255.427,485.919z"/>
		<path style="fill:#B6B6B6;" d="M255.427,477.386c-0.853,0-1.707,0-2.56-0.853c-4.267-1.707-6.827-6.827-5.12-11.093l162.133-435.2
			c1.707-4.267,6.827-6.827,11.093-5.12s6.827,6.827,5.12,11.093l-162.133,435.2C262.253,475.679,258.84,477.386,255.427,477.386z"
			/>
		<path style="fill:#B6B6B6;" d="M144.493,178.719c-1.707,0-3.413-0.853-5.12-1.707c-3.413-2.56-4.267-8.533-0.853-11.947
			L249.453,28.532c2.56-3.413,8.533-4.267,11.947-0.853c3.413,2.56,4.267,8.533,0.853,11.947L151.32,176.159
			C149.613,177.866,147.053,178.719,144.493,178.719z"/>
		<path style="fill:#B6B6B6;" d="M366.36,178.719c-2.56,0-5.12-0.853-6.827-3.413L248.6,38.772c-2.56-3.413-2.56-9.387,0.853-11.947
			s9.387-2.56,11.947,0.853l110.933,136.533c2.56,3.413,2.56,9.387-0.853,11.947C369.773,177.866,368.067,178.719,366.36,178.719z"
			/>
	</g>
</g>
</svg>