<svg xmlns="http://www.w3.org/2000/svg" width="50px" height="50px" xmlns:xlink="http://www.w3.org/1999/xlink" version="1.1" id="Layer_1" viewBox="0 0 512 512" xml:space="preserve">
<path style="fill:#DFCCBE;" d="M479.859,374.299H32.141l0.199-15.872c0.752-59.141,24.357-114.625,66.445-156.223  c42.141-41.629,97.97-64.564,157.215-64.564s115.075,22.936,157.215,64.564c42.088,41.597,65.693,97.081,66.445,156.223  L479.859,374.299z"/>
<path style="fill:#FFFFFF;" d="M108.706,311.645l-30.357-7.819c0.762-2.953,19.36-72.636,83.111-100.385l12.511,28.742  C124.093,253.894,108.854,311.07,108.706,311.645z"/>
<path style="fill:#C9AD91;" d="M479.859,374.299H256V137.64c59.246,0,115.075,22.936,157.215,64.564  c42.088,41.597,65.693,97.081,66.445,156.223L479.859,374.299z"/>
<path style="fill:#8A6746;" d="M278.956,129.312c0,12.675-10.282,22.956-22.956,22.956s-22.956-10.282-22.956-22.956  c0-12.675,10.282-22.956,22.956-22.956C268.675,106.356,278.956,116.637,278.956,129.312z"/>
<path style="fill:#664B33;" d="M256,152.268v-45.913c12.675,0,22.956,10.282,22.956,22.956  C278.956,141.985,268.675,152.268,256,152.268z"/>
<rect y="374.298" style="fill:#8A6746;" width="512" height="31.347"/>
<rect x="256" y="374.298" style="fill:#664B33;" width="256" height="31.347"/>
</svg>