<?xml version="1.0" encoding="iso-8859-1"?>
<!-- Uploaded to: SVG Repo, www.svgrepo.com, Generator: SVG Repo Mixer Tools -->
<svg height="40px" width="40px" version="1.1" id="Layer_1" xmlns="http://www.w3.org/2000/svg" xmlns:xlink="http://www.w3.org/1999/xlink" 
	 viewBox="0 0 512 512" xml:space="preserve">
<path style="fill:#0E4151;" d="M271.709,49.143V15.709C271.709,7.033,264.675,0,256,0c-8.675,0-15.709,7.033-15.709,15.709v33.435
	C240.291,49.143,271.709,49.143,271.709,49.143z"/>
<path style="fill:#144F66;" d="M256,49.143V0c-8.675,0-15.709,7.033-15.709,15.709v33.435C240.291,49.143,256,49.143,256,49.143z"/>
<path style="fill:#CFCDD6;" d="M420.385,115.138c-43.909-43.909-102.289-68.091-164.386-68.091S135.523,71.229,91.614,115.138
	S23.523,217.427,23.523,279.524S47.705,400,91.614,443.909S193.903,512,256,512s120.477-24.182,164.386-68.091
	s68.091-102.289,68.091-164.386S464.294,159.046,420.385,115.138z"/>
<path style="fill:#66CBC4;" d="M255.998,171.122c-2.017,0-4.027-0.027-6.032-0.065c-1.783,28.582-2.884,59.923-3.148,92.908
	c3.027,0.038,6.066,0.062,9.122,0.062c56.922,0,108.995-6.666,149.092-17.695c-3.766-36.055-13.592-69.818-28.207-99.748
	C341.027,162.216,299.835,171.122,255.998,171.122z"/>
<path style="fill:#39B7B6;" d="M376.824,146.585c17.29-7.551,33.32-16.669,47.781-27.115c-1.387-1.459-2.791-2.903-4.219-4.331
	c-34.627-34.627-78.258-56.974-125.61-64.879C328.737,72.877,357.127,106.246,376.824,146.585z"/>
<path style="fill:#DEE1E7;" d="M135.174,146.586c34.148,14.912,73.209,23.694,114.791,24.471
	c3.324-53.259,9.021-96.928,16.101-123.784c-3.345-0.141-6.699-0.226-10.067-0.226c-13.126,0-26.083,1.092-38.776,3.212
	C183.262,72.877,154.872,106.246,135.174,146.586z"/>
<path style="fill:#FFFFFF;" d="M246.818,263.966c-53.299-0.67-101.926-7.181-139.852-17.6c-1.131,10.843-1.724,21.891-1.724,33.106
	c0,38.622,6.921,75.282,19.332,108.274c38.538,10.507,81.37,16.53,126.541,16.936c-2.779-37.184-4.361-79.845-4.361-125.21
	C246.755,274.266,246.776,269.096,246.818,263.966z"/>
<g>
	<path style="fill:#39B7B6;" d="M387.434,387.742c-39.929,10.887-84.462,16.979-131.437,16.979c-1.633,0-3.255-0.024-4.881-0.039
		c3.416,45.702,8.644,83.12,14.978,107.092c9.616-0.408,19.126-1.398,28.493-2.954C335.327,481.75,368.072,439.218,387.434,387.742z
		"/>
	<path style="fill:#39B7B6;" d="M477.696,209.228c-12.074,14.66-37.852,27.528-72.665,37.104
		c1.134,10.854,1.727,21.913,1.727,33.139c0,38.618-6.914,75.281-19.323,108.27c33.728-9.197,64.172-21.813,90.001-37.101
		c7.258-22.688,11.04-46.61,11.04-71.117C488.476,255.312,484.784,231.672,477.696,209.228z"/>
</g>
<path style="fill:#FFFFFF;" d="M106.966,246.366c3.763-36.066,13.59-69.841,28.21-99.78c-17.29-7.55-33.321-16.669-47.781-27.115
	c-24.642,25.925-42.627,56.575-53.123,89.861C46.395,223.966,72.174,236.809,106.966,246.366z"/>
<g>
	<path style="fill:#DEE1E7;" d="M124.574,387.746c-33.731-9.196-64.18-21.813-90.009-37.101
		c11.134,34.799,30.47,66.686,57.049,93.265c34.672,34.672,78.372,57.031,125.796,64.91
		C176.672,481.751,143.937,439.217,124.574,387.746z"/>
	<path style="fill:#DEE1E7;" d="M55.081,99.122c-8.675,0-15.709-7.033-15.709-15.709V46.208c0-8.675,7.033-15.709,15.709-15.709
		s15.709,7.033,15.709,15.709v37.206C70.789,92.089,63.756,99.122,55.081,99.122z"/>
	<path style="fill:#DEE1E7;" d="M75.568,80.519H34.594c-8.675,0-15.709-7.033-15.709-15.709s7.033-15.709,15.709-15.709h40.974
		c8.675,0,15.709,7.033,15.709,15.709S84.243,80.519,75.568,80.519z"/>
</g>
<g>
	<path style="fill:#CFCDD6;" d="M456.918,99.122c-8.675,0-15.709-7.033-15.709-15.709V46.208c0-8.675,7.033-15.709,15.709-15.709
		s15.709,7.033,15.709,15.709v37.206C472.627,92.089,465.594,99.122,456.918,99.122z"/>
	<path style="fill:#CFCDD6;" d="M477.406,80.519h-40.974c-8.675,0-15.709-7.033-15.709-15.709s7.033-15.709,15.709-15.709h40.974
		c8.675,0,15.709,7.033,15.709,15.709S486.081,80.519,477.406,80.519z"/>
</g>
</svg>