<?xml version="1.0" encoding="iso-8859-1"?>
<!-- Uploaded to: SVG Repo, www.svgrepo.com, Generator: SVG Repo Mixer Tools -->
<svg height="50px" width="50px" version="1.1" id="Layer_1" xmlns="http://www.w3.org/2000/svg" xmlns:xlink="http://www.w3.org/1999/xlink" 
	 viewBox="0 0 512 512" xml:space="preserve">
<path style="fill:#36D9D9;" d="M500.562,189.949c-0.863-0.87-1.589-1.849-2.541-2.643L288.598,12.397
	c-18.902-16.196-46.305-16.196-65.033-0.141L13.989,187.305c-0.954,0.795-1.681,1.774-2.544,2.646
	C4.244,197.212,0,206.863,0,217.207v6.301l223.402,177.683c9.468,8.114,21.077,12.163,32.652,12.163
	c11.532,0,23.032-4.011,32.381-12.022L512,223.51v-6.303C512,206.86,507.754,197.209,500.562,189.949z"/>
<path style="fill:#43BFBF;" d="M498.021,187.305L288.598,12.397C279.141,4.295,267.56,0.248,256,0.235V413.35
	c0.019,0,0.036,0.004,0.055,0.004c11.532,0,23.032-4.011,32.381-12.022L512,223.51v-6.303c0-10.347-4.246-19.998-11.438-27.258
	C499.7,189.078,498.973,188.099,498.021,187.305z"/>
<path style="fill:#FFEFD9;" d="M395.13,66.74H116.87c-21.478,0-38.957,17.478-38.957,38.957v299.739h356.174V105.697
	C434.087,84.219,416.609,66.74,395.13,66.74z"/>
<path style="fill:#FFD9B3;" d="M395.13,66.74H256v338.696h178.087V105.697C434.087,84.219,416.609,66.74,395.13,66.74z"/>
<path style="fill:#FFC033;" d="M512,223.51v-6.303c0-10.347-4.246-19.998-11.438-27.258L266.859,375.844
	c-6.283,5.397-15.435,5.392-21.88-0.141L11.444,189.951C4.244,197.212,0,206.863,0,217.207v6.301v238.172
	c0,27.619,22.468,50.087,50.087,50.087h411.826c27.619,0,50.087-22.468,50.087-50.087V223.51"/>
<path style="fill:#F9A926;" d="M266.859,375.844c-3.135,2.694-6.987,4.038-10.859,4.025v131.899h205.913
	c27.619,0,50.087-22.468,50.087-50.087V223.51v-6.303c0-10.347-4.246-19.998-11.438-27.258L266.859,375.844z"/>
<path style="fill:#F26D76;" d="M251.022,277.043l-13.256,26.513c-1.85,3.701,0.84,8.054,4.978,8.054h26.513
	c4.137,0,6.827-4.354,4.978-8.054l-13.256-26.513C258.927,272.942,253.073,272.942,251.022,277.043z"/>
<path style="fill:#E65C64;" d="M269.255,311.61c4.138,0,6.829-4.354,4.979-8.054l-13.255-26.513
	c-1.026-2.051-3.003-3.076-4.979-3.076v37.643H269.255z"/>
<path style="fill:#F26D76;" d="M256,289.349c-42.957,0-77.913-34.951-77.913-77.913s34.956-77.913,77.913-77.913
	s77.913,34.951,77.913,77.913S298.957,289.349,256,289.349z"/>
<path style="fill:#E65C64;" d="M333.913,211.436c0-42.962-34.956-77.913-77.913-77.913v155.826
	C298.957,289.349,333.913,254.397,333.913,211.436z"/>
</svg>