<?xml version="1.0" encoding="iso-8859-1"?>
<!-- Uploaded to: SVG Repo, www.svgrepo.com, Generator: SVG Repo Mixer Tools -->
<svg height="30px" width="30px" version="1.1" id="Layer_1" xmlns="http://www.w3.org/2000/svg" xmlns:xlink="http://www.w3.org/1999/xlink" 
	 viewBox="0 0 512 512" xml:space="preserve">
<g transform="translate(1 1)">
	<g>
		<path style="fill:#E2E3E5;" d="M259.491,250.509c-5.389,0-8.982-3.593-8.982-8.982V16.965c0-5.389,3.593-8.982,8.982-8.982
			c5.389,0,8.982,3.593,8.982,8.982v224.561C268.474,246.916,264.881,250.509,259.491,250.509z"/>
		<path style="fill:#E2E3E5;" d="M259.491,511C131.042,511,25.947,405.905,25.947,277.456c0-103.298,69.165-195.818,167.972-224.561
			c4.491-1.796,9.881,1.796,10.779,6.288c1.797,4.491-1.796,9.881-6.288,10.779C107.688,96.909,43.912,182.242,43.912,277.456
			c0,118.568,97.011,215.579,215.579,215.579S475.07,396.025,475.07,277.456c0-95.214-63.775-180.547-155.396-206.596
			c-4.491-1.796-7.186-6.288-6.288-10.779c1.797-4.491,6.288-7.186,10.779-6.288c99.705,28.744,168.87,120.365,168.87,223.663
			C493.035,405.905,387.94,511,259.491,511z"/>
	</g>
	<g>
		<path style="fill:#B6B6B6;" d="M250.509,502.018c-128.449,0-233.544-105.095-233.544-233.544
			c0-103.298,69.165-195.818,167.972-224.561c4.491-1.796,9.881,0.898,10.779,6.288c1.796,4.491-1.796,9.881-6.288,10.779
			C98.705,87.926,34.93,173.26,34.93,268.474c0,118.568,97.011,215.579,215.579,215.579s215.579-97.011,215.579-215.579
			c0-95.214-63.775-180.547-155.396-206.596c-4.491-1.796-7.186-6.288-6.288-10.779c1.797-4.491,6.288-7.186,10.779-6.288
			c99.705,28.744,168.87,120.365,168.87,223.663C484.053,396.923,378.958,502.018,250.509,502.018z"/>
		<path style="fill:#B6B6B6;" d="M250.509,241.526c-5.389,0-8.982-3.593-8.982-8.982V7.982c0-5.389,3.593-8.982,8.982-8.982
			s8.982,3.593,8.982,8.982v224.561C259.491,237.933,255.898,241.526,250.509,241.526z"/>
	</g>
</g>
</svg>