<?xml version="1.0" encoding="iso-8859-1"?>
<!-- Uploaded to: SVG Repo, www.svgrepo.com, Generator: SVG Repo Mixer Tools -->
<svg height="50px" width="50px" version="1.1" id="Layer_1" xmlns="http://www.w3.org/2000/svg" xmlns:xlink="http://www.w3.org/1999/xlink" 
	 viewBox="0 0 512 512" xml:space="preserve">
<g transform="translate(1)">
	<path style="fill:#E2E3E5;" d="M511,246.519c0,130.844-106.193,237.037-237.037,237.037S36.926,377.363,36.926,246.519
		S143.119,9.481,273.963,9.481S511,115.674,511,246.519"/>
	<path style="fill:#CCCCCC;" d="M482.556,246.519c0,130.844-106.193,237.037-237.037,237.037S8.481,377.363,8.481,246.519
		S114.674,9.481,245.519,9.481S482.556,115.674,482.556,246.519"/>
	<path style="fill:#E2E3E5;" d="M454.111,246.519c0,130.844-92.919,237.037-208.593,237.037S36.926,377.363,36.926,246.519
		S130.793,9.481,245.519,9.481S454.111,115.674,454.111,246.519"/>
	<path style="fill:#FFFFFF;" d="M36.926,246.519c0-130.844,93.867-237.037,208.593-237.037
		C114.674,9.481,8.481,115.674,8.481,246.519s106.193,237.037,237.037,237.037C130.793,483.556,36.926,377.363,36.926,246.519"/>
	<g>
		<path style="fill:#B6B6B6;" d="M245.519,502.519C109.933,502.519-1,391.585-1,256S109.933,9.481,245.519,9.481
			S492.037,120.415,492.037,256S381.104,502.519,245.519,502.519z M245.519,28.444c-125.156,0-227.556,102.4-227.556,227.556
			s102.4,227.556,227.556,227.556S473.074,381.156,473.074,256S370.674,28.444,245.519,28.444z"/>
		<path style="fill:#B6B6B6;" d="M160.185,350.815c-2.844,0-4.741-0.948-6.637-2.844c-3.793-3.793-3.793-9.481,0-13.274
			L324.215,164.03c3.793-3.793,9.481-3.793,13.274,0c3.793,3.793,3.793,9.481,0,13.274L166.822,347.97
			C164.926,349.867,163.03,350.815,160.185,350.815z"/>
		<path style="fill:#B6B6B6;" d="M330.852,350.815c-2.844,0-4.741-0.948-6.637-2.844L153.548,177.304
			c-3.793-3.793-3.793-9.481,0-13.274c3.793-3.793,9.481-3.793,13.274,0l170.667,170.667c3.793,3.793,3.793,9.481,0,13.274
			C335.593,349.867,333.696,350.815,330.852,350.815z"/>
	</g>
</g>
</svg>