<!DOCTYPE svg PUBLIC "-//W3C//DTD SVG 1.1//EN" "http://www.w3.org/Graphics/SVG/1.1/DTD/svg11.dtd">

<!-- Uploaded to: SVG Repo, www.svgrepo.com, Transformed by: SVG Repo Mixer Tools -->
<svg width="50px" height="50px" viewBox="-3.6 -3.6 43.20 43.20" xmlns="http://www.w3.org/2000/svg" xmlns:xlink="http://www.w3.org/1999/xlink" aria-hidden="true" role="img" class="iconify iconify--twemoji" preserveAspectRatio="xMidYMid meet" fill="#000000">

<g id="SVGRepo_bgCarrier" stroke-width="0">

<path transform="translate(-3.6, -3.6), scale(1.35)" d="M16,25.08651650324464C17.68234919329123,25.114653336516994,19.352829050089642,25.947316314552598,20.960947624762913,25.452295972197803C22.647048418845753,24.933270692920022,24.459664247300026,23.926348989321315,25.104033260770244,22.284060432819878C25.764245996010533,20.601391345269548,24.33740576692033,18.81130761667268,24.275404338300838,17.00481600672259C24.224806318177116,15.530577414664572,24.84579049511935,14.14577070029772,24.77414721419644,12.672404884808492C24.682784890680097,10.793510973773182,24.53745564944623,8.927201593642547,23.798508281035637,7.197303853947243C22.798452557515485,4.856143698782309,22.06435187711715,1.8818464900119727,19.73045148669979,0.8649633650231667C17.482491020648844,-0.11447563458229315,14.671992944335244,0.9725206149227632,12.631049086491938,2.3316288446115525C10.718138463656304,3.6054770007790227,10.815798902476697,6.700042319742713,8.950948281183493,8.043265434564308C6.7659545157516465,9.61708271405979,3.0438033628303858,8.345527812908141,1.3620109876594881,10.448543027078411C-0.1924619907617826,12.392350343545948,0.004621740685860187,15.59161480211303,1.1455076559630673,17.80366192017284C2.302027375236463,20.046021193559483,5.298061270697403,20.480020246423862,7.316565442948951,21.993742109453656C8.679258311443993,23.015656265486754,9.52082137244955,24.716301548420514,11.125387101856205,25.287798894137687C12.679958421744285,25.841489756881348,14.349998778576255,25.058920681014914,16,25.08651650324464" fill="#fff3b8" strokewidth="0"/>

</g>

<g id="SVGRepo_tracerCarrier" stroke-linecap="round" stroke-linejoin="round"/>

<g id="SVGRepo_iconCarrier">

<path fill="#C1694F" d="M3.968 33.446C2.211 35.204.47 36.312.079 35.921c-.391-.391.718-2.132 2.475-3.889c1.757-1.758 3.498-2.866 3.889-2.475c.39.391-.718 2.131-2.475 3.889z"/>

<path fill="#FFCC4D" d="M6.443 29.558l-2.122-2.122s-1.083 1.393-2.284 3.63C1.137 32.742.786 33.8.786 33.8l.707.707l.707.707s1.059-.352 2.734-1.251c2.237-1.201 3.629-2.284 3.629-2.284l-2.12-2.121z"/>

<path fill="#752f3a" d="M34.02 1.98c-3.535-3.536-18.164 10.297-18.871 11.004c-.707.707-1.304 1.348-.928 1.724L12.1 16.829c-2.122 2.122-8.486 9.899-7.779 10.606l2.122 2.122l2.121 2.121c.707.707 8.485-5.657 10.607-7.778l2.121-2.121c.376.376 1.017-.222 1.724-.929c.707-.706 14.54-15.334 11.004-18.87z"/>

<path fill="#FFCC4D" d="M23.016 20.851c.085-.084.362-.375.774-.817l-7.823-7.822c-.442.411-.732.689-.817.774c-.707.707-1.304 1.348-.928 1.724l3.535 3.536l3.536 3.535c.375.374 1.016-.223 1.723-.93z"/>

<path fill="#FFAC33" d="M31.212 2.001C30.285 1.074 29.048.102 27.28.986c-1.768.884-7.313 4.441-9.878 7.005c-1.322 1.322-1.247 2.102-.751 2.165c.821.106 1.37.088 2.122-.663c.75-.751.883-2.033.883-2.033s3.05-2.342 5.458-3.778c2.409-1.437 3.268-1.682 4.11-.84c.842.842 1.988-.841 1.988-.841z"/>

<path fill="#FFAC33" d="M28.87 2.487l4.643 4.643a12.78 12.78 0 0 0 .818-2.011l-3.45-3.45c-.627.188-1.301.466-2.011.818z"/>

</g>

</svg>