<?xml version="1.0" encoding="iso-8859-1"?>
<!-- Uploaded to: SVG Repo, www.svgrepo.com, Generator: SVG Repo Mixer Tools -->
<svg height="30px" width="30px" version="1.1" id="Layer_1" xmlns="http://www.w3.org/2000/svg" xmlns:xlink="http://www.w3.org/1999/xlink" 
	 viewBox="0 0 511.277 511.277" xml:space="preserve">
<g transform="translate(1 1)">
	<path style="fill:#CCCCCC;" d="M469.187,403.119l-83.627-35.84c-4.267-2.56-8.533-6.827-11.093-12.8
		c-2.56-5.12,0.853-10.24,6.827-10.24h58.88c0,0,21.333,1.707,38.4-5.12c9.387-4.267,12.8-16.213,6.827-24.747
		c-17.92-25.6-54.613-85.333-55.467-146.773c0,0-1.707-94.72-95.573-95.573c-18.773,0-34.133,4.267-46.08,10.24
		c2.56,12.8,0.853,23.04,0.853,23.04v49.493c5.12,5.12,8.533,11.093,8.533,18.773v34.133c0,11.093-7.68,21.333-17.92,24.747
		c-5.973,17.92-14.507,34.987-25.6,51.2c-2.56,4.267-5.12,7.68-7.68,10.24v31.573c0,7.68,2.56,14.507,6.827,19.627
		c0,0,23.893,13.653,23.04,14.507l69.12,34.133c23.04,11.947,37.547,34.987,37.547,61.44v25.6h119.467v-23.04
		C502.467,434.692,489.667,413.359,469.187,403.119"/>
	<path style="fill:#E2E3E5;" d="M469.187,403.119l-83.627-35.84c-4.267-2.56-7.68-7.68-10.24-12.8s0.853-10.24,6.827-10.24h23.893
		c0,0,21.333,1.707,38.4-5.12c9.387-4.267,12.8-16.213,6.827-24.747c-17.92-25.6-54.613-85.333-55.467-146.773
		c0,0-1.707-94.72-95.573-95.573c-18.773,0-34.133,4.267-46.08,10.24c2.56,12.8,0.853,23.04,0.853,23.04v49.493
		c5.12,5.12,8.533,11.093,8.533,18.773v34.133c0,11.093-7.68,21.333-17.92,24.747c-5.973,17.92-14.507,34.987-25.6,51.2
		c-2.56,4.267-5.12,7.68-7.68,10.24v31.573c0,7.68,2.56,14.507,6.827,19.627c0,0,23.893,13.653,23.04,14.507l69.12,34.133
		c23.04,11.947,71.68,34.987,71.68,61.44v25.6h119.467v-23.04C502.467,434.692,489.667,413.359,469.187,403.119"/>
	<path style="fill:#CCCCCC;" d="M345.453,393.732l-81.92-40.96c-10.24-5.12-17.067-16.213-17.067-28.16v-31.573
		c2.56-2.56,5.12-5.973,7.68-10.24c11.093-15.36,19.627-33.28,25.6-51.2c10.24-3.413,17.92-12.8,17.92-24.747v-34.133
		c0-7.68-3.413-14.507-8.533-18.773v-48.64c0,0,10.24-76.8-93.867-76.8s-93.867,76.8-93.867,76.8v49.493
		c-5.12,5.12-8.533,11.093-8.533,18.773v34.133c0,9.387,5.12,17.067,11.947,21.333c8.533,37.547,30.72,64,30.72,64v31.573
		c0,11.093-5.973,22.187-16.213,27.307l-75.947,41.813c-22.187,11.947-35.84,34.987-35.84,59.733v27.307H383v-25.6
		C383,428.719,368.493,404.825,345.453,393.732"/>
	<path style="fill:#E2E3E5;" d="M306.2,393.732l-68.267-40.96c-10.24-5.12-17.067-16.213-17.067-28.16v-31.573
		c2.56-2.56,5.12-5.973,7.68-10.24c11.093-15.36,19.627-33.28,25.6-51.2c10.24-3.413,17.92-12.8,17.92-24.747v-34.133
		c0-7.68-3.413-14.507-8.533-18.773v-48.64c0,0,10.24-76.8-93.867-76.8c-69.973,0-68.267,76.8-68.267,76.8v49.493
		c-5.12,5.12-8.533,11.093-8.533,18.773v34.133c0,9.387,5.12,17.067,11.947,21.333c8.533,37.547,30.72,64,30.72,64v31.573
		c0,11.093-5.973,22.187-16.213,27.307l-75.947,41.813c-22.187,11.947-35.84,34.987-35.84,59.733v27.307h336.213v-25.6
		C343.747,428.719,329.24,404.825,306.2,393.732"/>
	<g>
		<path style="fill:#B6B6B6;" d="M383,489.305H7.533c-5.12,0-8.533-3.413-8.533-8.533v-27.307c0-28.16,15.36-53.76,40.107-67.413
			l75.947-41.813c7.68-4.267,11.947-11.947,11.947-19.627v-28.16c-5.973-7.68-22.187-30.72-29.867-61.44
			c-7.68-6.827-12.8-17.067-12.8-27.307v-34.133c0-8.533,3.413-16.213,8.533-22.187v-45.227c-0.853-4.267-2.56-32.427,17.92-55.467
			c17.067-20.48,46.08-30.72,84.48-30.72s67.413,10.24,84.48,29.867c20.48,23.04,17.92,51.2,17.92,55.467v45.227
			c5.12,5.973,8.533,14.507,8.533,22.187v34.133c0,13.653-7.68,25.6-19.627,30.72c-5.973,17.92-14.507,34.133-25.6,49.493
			c-1.707,3.413-4.267,5.973-5.973,8.533v29.013c0,8.533,5.12,16.213,12.8,20.48l81.92,40.96
			c26.453,12.8,42.667,39.253,42.667,69.12v25.6C391.533,485.892,388.12,489.305,383,489.305z M16.067,472.239h358.4v-17.067
			c0-23.04-12.8-43.52-33.28-53.76l0,0l-81.92-40.96c-12.8-6.827-21.333-20.48-21.333-35.84v-31.573
			c0-1.707,0.853-4.267,1.707-5.973c2.56-2.56,4.267-5.973,6.827-9.387c10.24-14.507,18.773-30.72,23.893-48.64
			c0.853-2.56,2.56-5.12,5.973-5.12c7.68-2.56,11.947-8.533,11.947-16.213v-34.133c0-5.12-1.707-9.387-5.973-12.8
			c-1.707-1.707-2.56-4.267-2.56-5.973v-49.493v-0.853c0,0,2.56-23.893-13.653-42.667c-13.653-16.213-37.547-24.747-70.827-24.747
			s-57.173,8.533-71.68,23.893c-16.213,18.773-13.653,42.667-13.653,42.667v0.853v49.493c0,2.56-0.853,5.12-2.56,5.973
			c-4.267,4.267-5.973,8.533-5.973,13.653v34.133c0,5.973,2.56,11.093,7.68,14.507c1.707,0.853,3.413,3.413,3.413,5.12
			c7.68,34.987,29.013,59.733,29.013,60.587c0.853,1.707,1.707,3.413,1.707,5.12v31.573c0,14.507-7.68,28.16-20.48,34.987
			l-75.947,41.813c-18.773,9.387-30.72,29.867-30.72,52.053V472.239z"/>
		<path style="fill:#B6B6B6;" d="M502.467,489.305H383c-5.12,0-8.533-3.413-8.533-8.533v-25.6c0-23.04-12.8-43.52-33.28-53.76
			l-69.12-34.133c-1.707-0.853-2.56-1.707-3.413-2.56c-3.413-2.56-11.947-7.68-19.627-11.947c-0.853-0.853-1.707-0.853-2.56-1.707
			c-5.973-6.827-8.533-16.213-8.533-24.747v-33.28c0-1.707,0.853-4.267,1.707-5.973c2.56-2.56,4.267-5.973,6.827-9.387
			c10.24-14.507,18.773-30.72,23.893-48.64c0.853-2.56,2.56-5.12,5.973-5.12c7.68-2.56,11.947-8.533,11.947-16.213v-34.133
			c0-5.12-1.707-9.387-5.973-12.8c-1.707-1.707-2.56-4.267-2.56-5.973v-49.493v-0.853c0,0,0.853-8.533-1.707-19.627
			c-0.853-4.267,0.853-7.68,4.267-9.387c14.507-6.827,31.573-11.093,50.347-11.093c101.547,0,104.96,102.4,104.96,103.253
			c0.853,59.733,38.4,119.467,54.613,141.653c4.267,5.973,5.973,14.507,3.413,21.333c-1.707,7.68-7.68,13.653-14.507,16.213
			c-18.773,7.68-40.96,5.973-42.667,5.973l-55.467,0c1.707,3.413,4.267,5.973,5.973,6.827l82.773,35.84l0,0
			c23.893,11.947,38.4,35.84,38.4,62.293v23.04C511,485.892,507.587,489.305,502.467,489.305z M391.533,472.239h102.4v-14.507
			c0-19.627-11.093-37.547-29.013-46.933l-82.773-35.84c-7.68-4.267-12.8-11.093-15.36-16.213c-2.56-5.12-2.56-10.24,0.853-15.36
			c2.56-4.267,7.68-7.68,13.653-7.68h58.88c0.853,0,20.48,1.707,34.987-4.267c3.413-1.707,4.267-4.267,4.267-5.12
			c0.853-2.56,0-5.12-0.853-6.827c-17.067-23.893-56.32-86.187-57.173-151.04c0-3.413-3.413-86.187-87.04-87.04
			c-13.653,0-25.6,2.56-36.693,6.827c0.853,8.533,0,15.36,0,17.92v45.227c5.12,5.973,8.533,14.507,8.533,22.187v34.133
			c0,13.653-7.68,25.6-19.627,30.72c-5.973,17.92-14.507,34.133-25.6,49.493c-1.707,2.56-4.267,5.973-5.973,8.533v29.013
			c0,4.267,1.707,9.387,4.267,12.8c13.653,7.68,20.48,11.947,23.04,14.507l66.56,33.28c26.453,12.8,42.667,39.253,42.667,69.12
			V472.239z"/>
	</g>
</g>
</svg>