<?xml version="1.0" encoding="iso-8859-1"?>
<!-- Uploaded to: SVG Repo, www.svgrepo.com, Generator: SVG Repo Mixer Tools -->
<svg height="30px" width="30px" version="1.1" id="Layer_1" xmlns="http://www.w3.org/2000/svg" xmlns:xlink="http://www.w3.org/1999/xlink" 
	 viewBox="0 0 512 512" xml:space="preserve">
<g transform="translate(1 1)">
	<path style="fill:#CCCCCC;" d="M502.467,255c0,136.533-110.933,247.467-247.467,247.467S7.533,391.533,7.533,255
		S118.467,7.533,255,7.533S502.467,118.467,502.467,255"/>
	<path style="fill:#E2E3E5;" d="M476.867,255c0,136.533-104.96,247.467-234.667,247.467S7.533,391.533,7.533,255
		S112.493,7.533,242.2,7.533S476.867,118.467,476.867,255"/>
	<path style="fill:#FFFFFF;" d="M255,502.467c2.56,0,4.267,0,6.827,0C134.68,499.053,33.133,389.827,33.133,255
		S134.68,10.947,261.827,7.533c-2.56,0-4.267,0-6.827,0C118.467,7.533,7.533,118.467,7.533,255S118.467,502.467,255,502.467"/>
	<g>
		<path style="fill:#F0F0F0;" d="M482.84,158.573C458.093,99.693,410.307,51.907,351.427,27.16
			c-50.347,10.24-87.893,54.613-87.893,108.373c0,61.44,49.493,110.933,110.933,110.933
			C428.227,246.467,472.6,208.92,482.84,158.573"/>
		<path style="fill:#F0F0F0;" d="M161.133,203.8c-72.533,0-132.267,52.907-143.36,122.88
			c23.893,79.36,87.04,141.653,165.547,165.547c69.973-11.093,122.88-70.827,122.88-143.36
			C306.2,268.653,241.347,203.8,161.133,203.8"/>
		<path style="fill:#F0F0F0;" d="M213.187,10.947c-58.88,10.24-110.933,40.96-148.48,85.333c4.267,7.68,4.267,17.067-1.707,25.6
			l-6.827,10.24l17.067,17.067l10.24-7.68c15.36-11.093,36.693-2.56,40.107,15.36l2.56,11.947h23.893l1.707-9.387
			c2.56-18.773,24.747-28.16,40.107-16.213l7.68,5.12l17.067-17.067l-6.827-10.24c-10.24-15.36-0.853-36.693,17.067-39.253
			l11.093-0.853V57.027l-11.947-2.56c-17.92-3.413-26.453-24.747-15.36-40.107L213.187,10.947z"/>
	</g>
	<path style="fill:#CCCCCC;" d="M220.867,348.867c0,33.28-26.453,59.733-59.733,59.733S101.4,382.147,101.4,348.867
		s26.453-59.733,59.733-59.733S220.867,315.587,220.867,348.867"/>
	<path style="fill:#F0F0F0;" d="M498.2,298.52c-5.12-4.267-9.387-11.093-10.24-18.773l-2.56-16.213h-29.867l-3.413,19.627
		c-4.267,22.187-29.867,33.28-48.64,20.48l-17.067-11.093l-20.48,20.48l9.387,12.8c13.653,18.773,3.413,45.227-19.627,49.493
		l-15.36,4.267V408.6l16.213,2.56c23.04,3.413,34.133,29.867,21.333,49.493l-8.533,12.8l0.853,0.853
		C436.76,439.32,484.547,375.32,498.2,298.52"/>
	<g>
		<path style="fill:#E2E3E5;" d="M186.733,348.867c0,14.507-11.093,25.6-25.6,25.6c-14.507,0-25.6-11.093-25.6-25.6
			c0-14.507,11.093-25.6,25.6-25.6C175.64,323.267,186.733,334.36,186.733,348.867"/>
		<path style="fill:#E2E3E5;" d="M400.067,135.533c0,14.507-11.093,25.6-25.6,25.6c-14.507,0-25.6-11.093-25.6-25.6
			s11.093-25.6,25.6-25.6C388.973,109.933,400.067,121.027,400.067,135.533"/>
		<path style="fill:#E2E3E5;" d="M101.4,67.267c0,18.773,15.36,34.133,34.133,34.133s34.133-15.36,34.133-34.133
			c0-16.213-11.093-29.867-26.453-33.28c-14.507,7.68-28.16,16.213-40.96,26.453C101.4,63,101.4,64.707,101.4,67.267"/>
		<path style="fill:#E2E3E5;" d="M439.32,420.547c20.48-22.187,36.693-48.64,46.933-77.653c-4.267-1.707-9.387-1.707-13.653-1.707
			c-25.6,0-46.933,21.333-46.933,46.933C425.667,400.067,430.787,412.013,439.32,420.547"/>
	</g>
	<g>
		<path style="fill:#B6B6B6;" d="M314.733,425.667c-0.853,0-2.56,0-3.413-0.853l-21.333-9.387
			c-4.267-1.707-5.973-6.827-4.267-11.093c1.707-4.267,6.827-5.973,11.093-4.267l21.333,9.387c4.267,1.707,5.973,6.827,4.267,11.093
			C320.707,423.96,318.147,425.667,314.733,425.667z"/>
		<path style="fill:#B6B6B6;" d="M220.013,225.133c-0.853,0-2.56,0-3.413-0.853c-4.267-1.707-5.973-6.827-4.267-11.093l9.387-21.333
			c1.707-4.267,6.827-5.973,11.093-4.267c4.267,1.707,5.973,6.827,4.267,11.093l-9.387,21.333
			C225.987,223.427,223.427,225.133,220.013,225.133z"/>
		<path style="fill:#B6B6B6;" d="M295.96,304.493c-3.413,0-6.827-1.707-7.68-5.12c-1.707-4.267,0.853-9.387,5.12-11.093
			l18.773-6.827c4.267-1.707,9.387,0.853,11.093,5.12c1.707,4.267-0.853,9.387-5.12,11.093l-18.773,6.827
			C298.52,304.493,297.667,304.493,295.96,304.493z"/>
		<path style="fill:#B6B6B6;" d="M108.227,222.573c-3.413,0-6.827-1.707-7.68-5.12L93.72,198.68
			c-1.707-4.267,0.853-9.387,5.12-11.093c4.267-1.707,9.387,0.853,11.093,5.12l6.827,18.773c1.707,4.267-0.853,9.387-5.12,11.093
			C110.787,221.72,109.933,222.573,108.227,222.573z"/>
		<path style="fill:#B6B6B6;" d="M161.133,383C142.36,383,127,367.64,127,348.867c0-18.773,15.36-34.133,34.133-34.133
			s34.133,15.36,34.133,34.133C195.267,367.64,179.907,383,161.133,383z M161.133,331.8c-9.387,0-17.067,7.68-17.067,17.067
			c0,9.387,7.68,17.067,17.067,17.067s17.067-7.68,17.067-17.067C178.2,339.48,170.52,331.8,161.133,331.8z"/>
		<path style="fill:#B6B6B6;" d="M374.467,169.667c-18.773,0-34.133-15.36-34.133-34.133s15.36-34.133,34.133-34.133
			c18.773,0,34.133,15.36,34.133,34.133S393.24,169.667,374.467,169.667z M374.467,118.467c-9.387,0-17.067,7.68-17.067,17.067
			s7.68,17.067,17.067,17.067s17.067-7.68,17.067-17.067S383.853,118.467,374.467,118.467z"/>
		<path style="fill:#B6B6B6;" d="M374.467,272.067c-5.12,0-8.533-3.413-8.533-8.533v-17.067c0-5.12,3.413-8.533,8.533-8.533
			c5.12,0,8.533,3.413,8.533,8.533v17.067C383,268.653,379.587,272.067,374.467,272.067z"/>
		<path style="fill:#B6B6B6;" d="M263.533,144.067h-17.067c-5.12,0-8.533-3.413-8.533-8.533s3.413-8.533,8.533-8.533h17.067
			c5.12,0,8.533,3.413,8.533,8.533S268.653,144.067,263.533,144.067z"/>
		<path style="fill:#B6B6B6;" d="M284.013,234.52c-2.56,0-4.267-0.853-5.973-2.56c-3.413-3.413-3.413-8.533,0-11.947l11.947-11.947
			c3.413-3.413,8.533-3.413,11.947,0c3.413,3.413,3.413,8.533,0,11.947l-11.947,11.947C288.28,233.667,285.72,234.52,284.013,234.52
			z"/>
		<path style="fill:#B6B6B6;" d="M464.92,234.52c-2.56,0-4.267-0.853-5.973-2.56L447,220.013c-3.413-3.413-3.413-8.533,0-11.947
			c3.413-3.413,8.533-3.413,11.947,0l11.947,11.947c3.413,3.413,3.413,8.533,0,11.947C469.187,233.667,467.48,234.52,464.92,234.52z
			"/>
		<path style="fill:#B6B6B6;" d="M295.96,65.56c-2.56,0-4.267-0.853-5.973-2.56L278.04,51.053c-3.413-3.413-3.413-8.533,0-11.947
			s8.533-3.413,11.947,0l11.947,11.947c3.413,3.413,3.413,8.533,0,11.947C300.227,64.707,298.52,65.56,295.96,65.56z"/>
		<path style="fill:#B6B6B6;" d="M255,511C114.2,511-1,395.8-1,255S114.2-1,255-1s256,115.2,256,256S395.8,511,255,511z M255,16.067
			C123.587,16.067,16.067,123.587,16.067,255S123.587,493.933,255,493.933S493.933,386.413,493.933,255S386.413,16.067,255,16.067z"
			/>
		<path style="fill:#B6B6B6;" d="M374.467,255C308.76,255,255,201.24,255,135.533c0-56.32,40.107-104.96,94.72-116.907
			c1.707,0,3.413,0,5.12,0.853c60.587,25.6,110.08,75.093,135.68,135.68c0.853,1.707,0.853,3.413,0.853,5.12
			C479.427,214.893,430.787,255,374.467,255z M350.573,35.693c-45.227,11.093-78.507,52.907-78.507,99.84
			c0,56.32,46.08,102.4,102.4,102.4c46.933,0,88.747-33.28,99.84-78.507C450.413,104.813,405.187,59.587,350.573,35.693z"/>
		<path style="fill:#B6B6B6;" d="M183.32,500.76c-0.853,0-1.707,0-2.56,0c-81.92-25.6-145.92-89.6-170.667-172.373
			c0-0.853-0.853-2.56,0-3.413c11.093-75.093,75.093-129.707,151.04-129.707c84.48,0,153.6,69.12,153.6,153.6
			c0,75.947-54.613,139.947-129.707,151.893C185.027,500.76,184.173,500.76,183.32,500.76z M27.16,325.827
			C50.2,400.92,109.08,459.8,184.173,482.84c65.707-11.093,113.493-67.413,113.493-133.973c0-75.093-61.44-136.533-136.533-136.533
			C94.573,212.333,38.253,260.12,27.16,325.827z"/>
		<path style="fill:#B6B6B6;" d="M149.187,178.2h-23.893c-4.267,0-7.68-2.56-8.533-6.827l-2.56-11.947
			c-0.853-5.973-5.12-10.24-10.24-12.8c-5.12-2.56-11.093-1.707-16.213,1.707l-10.24,7.68c-3.413,2.56-7.68,1.707-11.093-0.853
			l-17.067-17.067c-2.56-2.56-3.413-7.68-0.853-11.093l6.827-10.24c3.413-5.12,3.413-11.093,0.853-17.067
			c-1.707-3.413-0.853-6.827,0.853-9.387C96.28,43.373,150.04,11.8,210.627,1.56c3.413-0.853,6.827,0.853,8.533,4.267
			c1.707,2.56,1.707,6.827,0,9.387l-2.56,4.267c-3.413,5.12-4.267,11.093-1.707,17.067c2.56,5.12,6.827,9.387,12.8,10.24
			l11.947,2.56c4.267,0.853,6.827,4.267,6.827,7.68V80.92c0,4.267-3.413,7.68-6.827,8.533l-12.8,1.707
			c-5.973,0.853-10.24,4.267-12.8,10.24c-2.56,5.12-1.707,11.093,1.707,16.213l6.827,10.24c2.56,3.413,1.707,7.68-0.853,11.093
			l-17.067,17.067c-2.56,2.56-7.68,3.413-11.093,0.853l-7.68-5.12c-5.12-3.413-11.093-4.267-16.213-1.707
			c-5.12,2.56-9.387,6.827-10.24,12.8l-1.707,9.387C156.867,174.787,153.453,178.2,149.187,178.2z M132.973,161.133h9.387v-1.707
			c1.707-11.947,9.387-21.333,20.48-26.453c11.093-4.267,23.04-3.413,33.28,4.267l1.707,0.853l6.827-6.827L200.387,127
			c-6.827-9.387-7.68-22.187-3.413-32.427c4.267-11.093,14.507-17.92,25.6-19.627l6.827-0.853v-9.387l-5.12-0.853
			c-11.093-2.56-20.48-10.24-24.747-20.48c-2.56-5.973-2.56-12.8-1.707-19.627c-47.787,11.947-90.453,38.4-122.88,75.093
			c2.56,9.387,0.853,19.627-4.267,28.16l-3.413,4.267l6.827,6.827l4.267-3.413c9.387-6.827,21.333-8.533,32.427-4.267
			c11.093,4.267,18.773,13.653,20.48,24.747L132.973,161.133z"/>
		<path style="fill:#B6B6B6;" d="M135.533,109.933c-23.893,0-42.667-18.773-42.667-42.667c0-2.56,0-5.973,0.853-8.533
			c0-1.707,1.707-3.413,3.413-5.12c13.653-10.24,27.307-19.627,42.667-27.307c1.707-0.853,4.267-0.853,5.973-0.853
			c18.773,5.12,32.427,22.187,32.427,41.813C178.2,91.16,159.427,109.933,135.533,109.933z M109.933,65.56c0,0.853,0,1.707,0,1.707
			c0,14.507,11.093,25.6,25.6,25.6s25.6-11.093,25.6-25.6c0-11.093-6.827-20.48-17.067-23.893
			C132.12,49.347,121.027,57.027,109.933,65.56z"/>
		<path style="fill:#B6B6B6;" d="M161.133,417.133c-37.547,0-68.267-30.72-68.267-68.267s30.72-68.267,68.267-68.267
			s68.267,30.72,68.267,68.267S198.68,417.133,161.133,417.133z M161.133,297.667c-28.16,0-51.2,23.04-51.2,51.2
			c0,28.16,23.04,51.2,51.2,51.2s51.2-23.04,51.2-51.2C212.333,320.707,189.293,297.667,161.133,297.667z"/>
		<path style="fill:#B6B6B6;" d="M370.2,482.84c-2.56,0-4.267-0.853-5.973-2.56l-0.853-0.853c-2.56-2.56-3.413-7.68-0.853-11.093
			l8.533-12.8c4.267-6.827,5.12-15.36,1.707-22.187c-3.413-7.68-9.387-12.8-17.92-13.653l-16.213-2.56
			c-4.267-0.853-6.827-4.267-6.827-8.533v-29.867c0-4.267,2.56-7.68,6.827-8.533l15.36-2.56c7.68-1.707,14.507-6.827,17.067-14.507
			c2.56-7.68,1.707-15.36-2.56-22.187l-9.387-12.8c-2.56-3.413-1.707-8.533,0.853-11.093l20.48-20.48
			c2.56-2.56,7.68-3.413,11.093-0.853l17.067,11.093c6.827,4.267,14.507,5.12,22.187,2.56c7.68-3.413,12.8-9.387,13.653-17.067
			l3.413-19.627c0.853-4.267,4.267-6.827,8.533-6.827H485.4c4.267,0,7.68,3.413,8.533,6.827l2.56,16.213
			c0.853,5.12,3.413,10.24,7.68,13.653c2.56,1.707,3.413,5.12,2.56,7.68c-13.653,76.8-63.147,145.067-133.12,181.76
			C372.76,481.987,371.053,482.84,370.2,482.84z M348.867,401.773l8.533,1.707c13.653,1.707,25.6,11.093,30.72,23.893
			c3.413,7.68,4.267,17.067,2.56,24.747c50.347-34.987,86.187-89.6,98.133-150.187c-5.12-5.973-8.533-12.8-9.387-20.48l-1.707-8.533
			h-15.36l-2.56,12.8c-2.56,13.653-11.947,24.747-23.893,29.867c-12.8,5.12-26.453,3.413-37.547-4.267l-11.093-7.68l-11.093,11.093
			l5.12,7.68c8.533,11.093,10.24,25.6,5.12,38.4c-5.12,12.8-16.213,22.187-29.867,24.747l-8.533,1.707v14.507H348.867z"/>
		<path style="fill:#B6B6B6;" d="M439.32,429.08c-2.56,0-4.267-0.853-5.973-2.56c-10.24-10.24-16.213-23.893-16.213-39.253
			c0-30.72,24.747-55.467,55.467-55.467c5.973,0,11.093,0.853,16.213,2.56c2.56,0.853,4.267,2.56,5.12,4.267
			c0.853,1.707,0.853,4.267,0,6.827c-11.093,29.867-27.307,57.173-48.64,80.213C443.587,427.373,441.88,429.08,439.32,429.08
			L439.32,429.08z M472.6,348.867c-21.333,0-38.4,17.067-38.4,38.4c0,6.827,1.707,13.653,5.12,19.627
			c14.507-17.92,26.453-36.693,34.987-58.027C474.307,348.867,473.453,348.867,472.6,348.867z"/>
	</g>
</g>
</svg>