<?xml version="1.0" encoding="iso-8859-1"?>
<!-- Uploaded to: SVG Repo, www.svgrepo.com, Generator: SVG Repo Mixer Tools -->
<svg height="30px" width="30px" version="1.1" id="Layer_1" xmlns="http://www.w3.org/2000/svg" xmlns:xlink="http://www.w3.org/1999/xlink" 
	 viewBox="0 0 512 512" xml:space="preserve">
<g transform="translate(1 1)">
	<g>
		<path style="fill:#E2E3E5;" d="M454.593,77.102H55.407c-5.207,0-8.678-3.471-8.678-8.678s3.471-8.678,8.678-8.678h399.186
			c5.207,0,8.678,3.471,8.678,8.678S459.8,77.102,454.593,77.102z"/>
		<path style="fill:#E2E3E5;" d="M341.78,68.424h-17.356c0-6.942-1.736-27.769-11.281-37.315c-3.471-4.339-8.678-6.075-14.753-6.075
			h-86.78c-6.075,0-11.281,1.736-14.753,6.075c-9.546,9.546-11.281,30.373-11.281,37.315H168.22c0-1.736-0.868-32.976,16.488-49.464
			c6.942-7.81,15.62-11.281,26.902-11.281h86.78c11.281,0,19.959,3.471,26.902,11.281C342.647,36.315,341.78,67.556,341.78,68.424z"
			/>
		<path style="fill:#E2E3E5;" d="M272.356,94.458l4.339,407.864h0.868h126.698c32.976,0,33.844-34.712,33.844-34.712l17.356-373.153
			H272.356z"/>
	</g>
	<path style="fill:#CCCCCC;" d="M246.322,94.458l4.339,407.864h0.868h126.698c32.976,0,33.844-34.712,33.844-34.712l17.356-373.153
		H246.322z"/>
	<path style="fill:#FFFFFF;" d="M263.678,94.458l-4.339,407.864h-0.868H132.641c-33.844,0-33.844-34.712-33.844-34.712
		L81.441,94.458H263.678z"/>
	<path style="fill:#E2E3E5;" d="M107.475,94.458l17.356,373.153c0,0,0.868,34.712,33.844,34.712h118.02h0.868h74.631
		c32.976,0,33.844-34.712,33.844-34.712l17.356-373.153H107.475z"/>
	<g>
		<path style="fill:#B6B6B6;" d="M324.424,68.424L324.424,68.424c-5.207,0-8.678-4.339-8.678-8.678
			c0-6.942-1.736-27.769-11.281-37.315c-3.471-4.339-8.678-6.075-14.753-6.075h-86.78c-6.075,0-11.281,1.736-14.753,6.075
			c-9.546,9.546-11.281,30.373-11.281,37.315c0,5.207-3.471,8.678-8.678,8.678c-4.339,0-8.678-3.471-8.678-8.678
			c0-1.736-0.868-32.976,16.488-49.464C182.973,2.471,191.651-1,202.932-1h86.78c11.281,0,19.959,3.471,26.902,11.281
			c17.356,17.356,16.488,48.597,16.488,49.464C333.102,64.953,328.763,68.424,324.424,68.424z"/>
		<path style="fill:#B6B6B6;" d="M454.593,68.424H55.407c-5.207,0-8.678-3.471-8.678-8.678s3.471-8.678,8.678-8.678h399.186
			c5.207,0,8.678,3.471,8.678,8.678S459.8,68.424,454.593,68.424z"/>
		<path style="fill:#B6B6B6;" d="M359.136,467.61H150.864c-5.207,0-8.678-3.471-8.678-8.678c0-5.207,3.471-8.678,8.678-8.678
			h208.271c5.207,0,8.678,3.471,8.678,8.678C367.814,464.139,364.342,467.61,359.136,467.61z"/>
		<path style="fill:#B6B6B6;" d="M359.136,424.22H150.864c-5.207,0-8.678-3.471-8.678-8.678c0-5.207,3.471-8.678,8.678-8.678
			h208.271c5.207,0,8.678,3.471,8.678,8.678C367.814,420.749,364.342,424.22,359.136,424.22z"/>
		<path style="fill:#B6B6B6;" d="M359.136,380.831H150.864c-5.207,0-8.678-3.471-8.678-8.678c0-5.207,3.471-8.678,8.678-8.678
			h208.271c5.207,0,8.678,3.471,8.678,8.678C367.814,377.359,364.342,380.831,359.136,380.831z"/>
		<path style="fill:#B6B6B6;" d="M419.881,337.441L419.881,337.441c-5.207,0-8.678-4.339-8.678-8.678l8.678-225.627H90.119
			l1.736,52.068c0,5.207-3.471,8.678-8.678,8.678s-8.678-3.471-8.678-8.678l-1.736-60.746c0-2.603,0.868-4.339,2.603-6.075
			c1.736-1.736,3.471-2.603,6.075-2.603h347.119c2.603,0,4.339,0.868,6.075,2.603c1.736,1.736,2.603,4.339,2.603,6.075
			l-8.678,234.305C428.559,333.969,424.22,337.441,419.881,337.441z"/>
		<path style="fill:#B6B6B6;" d="M377.359,511H132.641c-32.976,0-42.522-28.637-42.522-43.39L77.102,207.271
			c0-5.207,3.471-8.678,8.678-8.678c4.339,0,8.678,3.471,8.678,8.678l13.017,260.339c0,2.603,1.736,26.034,25.166,26.034h245.586
			c24.298,0,25.166-23.431,25.166-26.034l5.207-69.424c0-5.207,4.339-8.678,9.546-7.81c5.207,0,8.678,4.339,7.81,9.546
			l-5.207,69.424C419.881,482.363,410.336,511,377.359,511z"/>
		<path style="fill:#B6B6B6;" d="M93.59,181.237c0,5.207-3.471,8.678-8.678,8.678s-8.678-3.471-8.678-8.678s3.471-8.678,8.678-8.678
			S93.59,176.031,93.59,181.237"/>
		<path style="fill:#B6B6B6;" d="M428.559,363.475c0,5.207-3.471,8.678-8.678,8.678c-5.207,0-8.678-3.471-8.678-8.678
			s3.471-8.678,8.678-8.678C425.088,354.797,428.559,358.268,428.559,363.475"/>
	</g>
</g>
</svg>